<?xml version="1.0" encoding="UTF-8"?>
<svg width="192px" height="133px" viewBox="0 0 192 133" version="1.1" xmlns="http://www.w3.org/2000/svg" xmlns:xlink="http://www.w3.org/1999/xlink">
    <!-- Generator: Sketch 51.3 (57544) - http://www.bohemiancoding.com/sketch -->
    <title>Group 4</title>
    <desc>Created with Sketch.</desc>
    <defs></defs>
    <g id="Page-1" stroke="none" stroke-width="1" fill="none" fill-rule="evenodd">
        <g id="Group-4" transform="translate(2.000000, 1.000000)" stroke="#FFFFFF" stroke-width="2">
            <polyline id="Fill-13-Copy-2" points="78.934 72 62 101.329 78.934 130.658 112.8 130.658 129.733 101.329 112.8 72 78.934 72"></polyline>
            <polyline id="Fill-14-Copy-2" points="112.8 58.659 129.733 29.329 112.8 0 78.934 0 62 29.329 78.934 58.659 112.8 58.659"></polyline>
            <polyline id="Fill-17-Copy-2" points="50.8 94.658 67.733 65.329 50.8 36 16.934 36 0 65.329 16.934 94.658 50.8 94.658"></polyline>
            <polyline id="Fill-19-Copy-2" points="137.933 94.658 171.799 94.658 188.733 65.329 171.799 36 137.933 36 121 65.329 137.933 94.658"></polyline>
        </g>
    </g>
</svg>