<?xml version="1.0" encoding="UTF-8"?>
<svg width="185px" height="110px" viewBox="0 0 185 110" version="1.1" xmlns="http://www.w3.org/2000/svg" xmlns:xlink="http://www.w3.org/1999/xlink">
    <!-- Generator: Sketch 51.3 (57544) - http://www.bohemiancoding.com/sketch -->
    <title>Zaza.</title>
    <desc>Created with Sketch.</desc>
    <defs></defs>
    <g id="Page-1" stroke="none" stroke-width="1" fill="none" fill-rule="evenodd">
        <g id="Custom-Preset-Copy-2" transform="translate(-156.000000, -210.000000)" fill="#FFFFFF">
            <path d="M228.909479,260.35484 C226.543707,256.739283 224.185651,253.669222 221.835241,251.144566 C219.484831,248.61991 217.049966,246.640734 214.530572,245.206979 C211.488865,243.3992 208.431842,241.871962 205.35941,240.625218 C202.286979,239.378474 199.168508,238.973289 196.003904,239.409649 C195.327969,239.534324 194.652044,239.705748 193.976109,239.923928 C193.300174,240.142109 192.639611,240.188861 191.994401,240.064186 C191.56426,240.064186 191.103403,239.92393 190.611814,239.643412 C190.120225,239.362895 189.812986,238.973294 189.690089,238.474596 C189.567191,237.851224 189.544149,237.368118 189.620959,237.025264 C189.69777,236.682409 189.828347,236.386312 190.012692,236.136963 C190.197038,235.887614 190.412105,235.685022 190.6579,235.529179 C190.903694,235.373336 191.134123,235.201911 191.349193,235.014899 L198.262129,229.030559 C200.566453,227.035769 202.870742,225.009841 205.175065,222.952714 C206.188968,222.017656 207.202855,220.895603 208.216757,219.586522 C209.23066,218.277441 210.413528,216.843707 211.765398,215.285278 C212.011192,214.973592 212.034235,214.724247 211.834527,214.537235 C211.634819,214.350224 211.342942,214.225551 210.958888,214.163214 C210.574835,214.100877 210.175424,214.069709 209.760646,214.069709 L208.861965,214.069709 C203.669556,213.758023 198.538672,214.163208 193.46916,215.285278 C188.399649,216.407347 183.376299,218.464444 178.39896,221.456629 C175.756669,223.077395 173.198908,225.009819 170.725601,227.253958 C168.252294,229.498097 165.98641,232.552573 163.927881,236.417479 C162.821805,238.474606 161.846323,240.640791 161.001404,242.916098 C160.156486,245.191406 159.495923,247.606936 159.019696,250.16276 C158.543469,252.718585 158.266955,255.414628 158.190144,258.25097 C158.113333,261.087312 158.274633,264.063868 158.674049,267.180728 C158.981292,268.614483 159.311574,269.705368 159.664904,270.453414 C160.018233,271.20146 160.379238,271.840407 160.74793,272.370273 C161.116622,272.900139 161.477627,273.367661 161.830957,273.772853 C162.184286,274.178044 162.483844,274.754655 162.729638,275.502701 C162.821811,275.814387 162.983112,276.297493 163.213544,276.952033 C163.443976,277.606574 163.605277,278.276689 163.697449,278.962398 C163.789622,279.648107 163.735856,280.240301 163.536148,280.738999 C163.33644,281.237696 162.867901,281.455873 162.130517,281.393536 C160.901545,281.08185 159.979829,280.302647 159.365343,279.055903 C158.750857,277.809159 158.274637,276.437762 157.93667,274.941669 C156.615524,270.141706 155.970323,265.357398 156.001047,260.588603 C156.031772,255.819808 156.646249,251.035501 157.844497,246.235537 C158.551156,243.243352 159.434467,240.547309 160.494456,238.147327 C161.554445,235.747346 162.729632,233.549993 164.020053,231.555203 C165.617717,229.124052 167.284486,227.020204 169.02041,225.243594 C170.756334,223.466984 172.538317,221.924162 174.366414,220.615081 C176.194511,219.306 178.053304,218.152779 179.942849,217.155384 C181.832394,216.157989 183.729592,215.191777 185.6345,214.256719 C190.458217,212.074918 195.289543,210.78144 200.128622,210.376249 C204.967701,209.971057 209.845113,209.893137 214.761003,210.142485 C214.914625,210.142485 215.106649,210.204822 215.337081,210.329496 C215.567514,210.45417 215.797942,210.594427 216.028375,210.75027 C216.258807,210.906113 216.458512,211.093122 216.627496,211.311302 C216.79648,211.529482 216.896332,211.732075 216.927056,211.919086 C217.049954,212.29311 217.072997,212.682711 216.996186,213.087903 C216.919375,213.493095 216.781118,213.882696 216.58141,214.256719 C216.381702,214.630742 216.166635,214.973592 215.936202,215.285278 C215.70577,215.596964 215.513746,215.846309 215.360124,216.03332 C213.301595,218.339796 211.220054,220.568317 209.115439,222.71895 C207.010823,224.869583 204.898558,227.035768 202.778581,229.21757 C201.979749,230.027953 201.18861,230.760404 200.40514,231.414945 C199.62167,232.069485 198.83053,232.895441 198.031698,233.892836 C197.663006,234.266859 197.632283,234.562956 197.939526,234.781136 C198.246769,234.999316 198.699946,235.186325 199.29907,235.342168 C199.898194,235.498011 200.551076,235.638267 201.257735,235.762942 C201.964394,235.887616 202.532785,235.981121 202.962926,236.043458 C206.649843,236.729167 210.221491,238.116149 213.677977,240.204444 C217.134462,242.29274 220.491043,245.082288 223.74782,248.57317 C224.823171,249.632902 225.85242,250.801707 226.835598,252.079619 C227.818776,253.357532 228.801939,254.682177 229.785117,256.053595 C230.399604,256.926316 230.991038,257.456174 231.559438,257.643186 C232.127837,257.830197 232.765357,257.674357 233.472017,257.175659 C234.42447,256.614624 235.22329,256.147103 235.868501,255.773079 C236.513712,255.399056 237.082103,255.071791 237.573692,254.791274 C238.065281,254.510756 238.518458,254.245827 238.933236,253.996478 C239.348014,253.74713 239.79351,253.482201 240.269737,253.201683 C240.745964,252.921166 241.306674,252.609485 241.951885,252.26663 C242.597095,251.923776 243.395915,251.471838 244.348369,250.910803 C245.239374,250.412105 246.122685,250.00692 246.998328,249.695234 C247.873971,249.383548 248.757282,249.040699 249.648287,248.666675 C250.416395,248.542001 250.785081,248.651089 250.754357,248.993944 C250.723632,249.336799 250.401032,249.664064 249.786545,249.97575 C248.526849,250.723796 247.413109,251.393911 246.445293,251.986114 C245.477477,252.578317 244.594166,253.12376 243.795334,253.622457 C242.996502,254.121155 242.228406,254.604261 241.491022,255.07179 C240.753639,255.539318 239.9625,256.038008 239.117581,256.567875 C238.272662,257.097741 237.350947,257.674351 236.352407,258.297723 C235.353866,258.921095 234.178679,259.637962 232.826809,260.448345 C233.25695,261.757426 233.617955,262.926231 233.909836,263.954794 C234.201717,264.983358 234.501274,265.933986 234.808518,266.806707 C235.638074,269.17552 236.191103,271.606634 236.467622,274.100121 C236.744141,276.593609 236.805589,279.055891 236.651967,281.487041 C236.498346,283.918192 236.145021,286.224633 235.591984,288.406435 C235.038946,290.588236 234.332297,292.52066 233.472017,294.203764 C232.396666,296.447903 231.244521,298.567335 230.015549,300.562126 C228.786576,302.556916 227.496174,304.271163 226.144304,305.704918 C221.935074,310.130858 217.595329,313.574936 213.124942,316.037255 C208.654554,318.499574 204.007571,319.48137 199.183854,318.982673 C197.709087,318.857998 196.464771,318.281388 195.450869,317.252824 C194.436966,316.224261 193.684232,314.868447 193.192643,313.185343 C192.701054,311.502239 192.485987,309.523063 192.547436,307.247756 C192.608884,304.972448 192.992932,302.494582 193.699592,299.814083 C194.252629,297.632281 194.905511,295.653105 195.658257,293.876495 C196.411002,292.099886 197.225185,290.463559 198.100828,288.967466 C198.97647,287.471374 199.905867,286.084392 200.889045,284.80648 C201.872223,283.528567 202.870748,282.328595 203.884651,281.206525 C207.417947,277.279282 211.03568,273.804036 214.73796,270.780683 C218.44024,267.757329 222.211593,264.936613 226.052132,262.318451 C226.420824,262.069103 226.812553,261.78859 227.227331,261.476904 C227.642109,261.165218 228.20282,260.7912 228.909479,260.35484 Z M199.091682,315.055449 C199.245303,315.117787 199.483413,315.195707 199.806018,315.289213 C200.128624,315.382719 200.474267,315.429471 200.842959,315.429471 C206.649854,315.429471 212.287681,313.310038 217.756609,309.071109 C218.985581,308.073714 220.214535,307.06075 221.443508,306.032186 C222.672481,305.003623 223.870711,303.865986 225.038235,302.619242 C226.205759,301.372499 227.33486,299.969933 228.425573,298.411503 C229.516286,296.853074 230.537855,295.045322 231.490308,292.988195 C233.456664,288.749266 234.501275,284.416897 234.624173,279.990956 C234.74707,275.565016 233.886802,271.107974 232.043343,266.619696 C231.613203,265.684638 231.252197,264.936603 230.960317,264.375568 C230.668436,263.814534 230.368878,263.440516 230.061635,263.253505 C229.754392,263.066493 229.408748,263.066493 229.024694,263.253505 C228.640641,263.440516 228.15674,263.783366 227.572978,264.282063 C224.899963,266.401528 222.257711,268.474208 219.646145,270.500167 C217.034578,272.526125 214.438412,274.754646 211.85757,277.185797 C209.921938,278.931238 208.040102,280.863662 206.212006,282.983126 C204.383909,285.102591 202.578883,287.284359 200.796873,289.528498 C199.475727,291.211602 198.315902,293.237531 197.317361,295.606344 C196.318821,297.975157 195.604492,300.780288 195.174351,304.021822 C194.744211,307.38803 194.805659,309.912649 195.358696,311.595753 C195.911734,313.278857 197.15605,314.432078 199.091682,315.055449 Z M257.411525,261.561137 C255.165279,261.240245 253.119622,261.494281 251.274491,262.323253 C249.42936,263.152225 247.931885,264.288701 246.782021,265.732716 C245.632157,267.176732 244.923531,268.83465 244.656121,270.706522 C244.38871,272.578394 244.736338,274.423497 245.699015,276.241886 C246.287318,276.669743 246.862241,276.616261 247.423803,276.081441 C247.985364,275.54662 248.546917,274.757772 249.108479,273.714872 C249.67004,272.671972 250.218223,271.508755 250.753044,270.225186 C251.287864,268.941617 251.809306,267.751659 252.317386,266.655277 C252.825465,265.558895 253.320167,264.676454 253.801505,264.007929 C254.282843,263.339403 254.764175,263.112108 255.245513,263.326036 C255.619887,263.486482 255.954145,263.80737 256.248296,264.288708 C256.542448,264.770047 256.796484,265.318229 257.010412,265.933273 C257.22434,266.548317 257.424895,267.163351 257.612082,267.778394 C257.799269,268.393438 257.973083,268.941621 258.133529,269.422959 C258.66835,271.134385 259.256643,272.458045 259.898428,273.393981 C260.540213,274.329917 261.168617,274.985062 261.783661,275.359437 C262.398704,275.733811 262.973628,275.894255 263.508448,275.840773 C264.043269,275.787291 264.497859,275.680328 264.872234,275.519882 C265.139644,275.359436 265.460531,275.11877 265.834906,274.797878 C266.20928,274.476986 266.583649,274.129358 266.958023,273.754983 C267.332397,273.380609 267.680025,273.059722 268.000918,272.792311 C268.32181,272.524901 268.589216,272.391198 268.803144,272.391198 C269.284483,272.391198 269.431556,272.792307 269.244369,273.594538 C269.057182,274.396769 268.696184,275.279209 268.161363,276.241886 C267.626543,277.204563 266.958027,278.087004 266.155796,278.889234 C265.353566,279.691465 264.578088,280.092574 263.829339,280.092574 C263.027108,280.092574 262.278371,279.958871 261.583104,279.691461 C260.887837,279.424051 260.205952,279.009571 259.537426,278.44801 C258.8689,277.886448 258.146904,277.177822 257.371414,276.322109 C256.595924,275.466396 255.726854,274.476993 254.764177,273.35387 C253.961946,274.156101 253.346912,275.011801 252.919056,275.920995 C252.491199,276.83019 251.822684,277.632409 250.913489,278.327676 C249.736884,279.504281 248.453334,280.34661 247.062801,280.85469 C245.672267,281.362769 244.255014,281.215696 242.810999,280.413465 C241.420466,279.664716 240.644988,278.608462 240.484542,277.24467 C240.324096,275.880877 240.324096,274.530476 240.484542,273.193425 C240.751952,270.73325 241.366986,268.406816 242.329663,266.214052 C243.29234,264.021288 244.682852,262.069223 246.501242,260.357797 C247.356955,259.609049 248.480061,258.80683 249.870594,257.951117 C251.261127,257.095404 252.544677,256.560592 253.721282,256.346664 C254.309585,256.293182 255.004841,256.440255 255.807072,256.787889 C256.609303,257.135522 257.277818,257.590112 257.812639,258.151674 C258.347459,258.713235 258.628236,259.314899 258.654977,259.956684 C258.681718,260.598469 258.267238,261.133281 257.411525,261.561137 Z M279.713428,256.667555 C279.178607,256.614072 278.523462,256.573962 277.747972,256.54722 C276.972483,256.520479 276.156894,256.587331 275.301181,256.747777 C274.445468,256.908223 273.589768,257.189 272.734055,257.590115 C271.878343,257.991231 271.102864,258.619635 270.407598,259.475348 C269.872777,259.689276 269.311224,259.742757 268.722922,259.635793 C268.134619,259.528829 267.626547,259.288164 267.198691,258.913789 C266.770835,258.539415 266.463317,258.044713 266.27613,257.42967 C266.088943,256.814626 266.129054,256.052519 266.396464,255.143324 C266.610393,254.555021 267.185316,254.167282 268.121252,253.980095 C269.057188,253.792908 269.872777,253.645834 270.568043,253.53887 C272.279469,253.378424 273.977498,253.258091 275.662183,253.177868 C277.346867,253.097645 279.044897,253.084275 280.756322,253.137757 C283.163015,253.191239 284.647119,253.792903 285.208681,254.942767 C285.770242,256.092631 285.435984,257.683698 284.205897,259.716016 C283.938487,260.09039 283.64434,260.451389 283.323448,260.799022 C283.002556,261.146655 282.574706,261.614616 282.039885,262.202919 C283.430418,262.791221 284.754079,263.272553 286.010907,263.646927 C287.267735,264.021301 288.404212,264.582854 289.420371,265.331603 C290.490012,266.080352 291.452674,266.936052 292.308387,267.898728 C293.1641,268.861405 294.04654,270.037993 294.955735,271.428526 C296.988053,270.144957 299.047081,268.954999 301.132881,267.858617 C303.218681,266.762235 305.050413,265.866424 306.628134,265.171158 C308.205854,264.475891 309.369071,264.0213 310.11782,263.807372 C310.866568,263.593444 310.92005,263.727147 310.278265,264.208486 C308.299429,265.492055 306.708362,266.655272 305.505016,267.698172 C304.30167,268.741072 303.325637,269.503179 302.576889,269.984518 C299.849304,271.856389 297.576351,274.02238 295.757962,276.482554 C293.939572,278.942728 292.602541,281.884197 291.746828,285.307048 C290.623705,290.06695 288.965787,294.586115 286.773023,298.864679 C284.580259,303.143243 282.093381,307.28804 279.312314,311.299193 C278.777494,312.047942 278.256052,312.783309 277.747972,313.505317 C277.239893,314.227324 276.664969,314.88247 276.023185,315.470772 C275.274436,316.059075 274.458847,316.687479 273.576393,317.356005 C272.69394,318.02453 271.931832,318.278566 271.290047,318.11812 C270.648263,317.957674 270.140191,317.663527 269.765816,317.235671 C269.391442,316.807814 269.110666,316.326483 268.923478,315.791663 C268.736291,315.256842 268.642699,314.681919 268.642699,314.066875 C268.642699,313.451832 268.66944,312.850168 268.722922,312.261865 C269.150778,308.625086 270.006478,305.148805 271.290047,301.832918 C272.573616,298.517031 274.311757,295.388378 276.504521,292.446866 C278.32291,290.040173 280.208124,287.686999 282.160219,285.387271 C284.112314,283.087543 286.10449,280.787849 288.136808,278.488121 C289.741269,276.669731 290.449896,274.824628 290.262709,272.952757 C290.075522,271.080885 288.885564,269.58341 286.6928,268.460287 C285.623159,267.871985 284.473312,267.484246 283.243225,267.297058 C282.013138,267.109871 280.783069,266.855835 279.552982,266.534943 C279.125126,266.427979 278.469981,266.334387 277.587527,266.254164 C276.705073,266.173941 275.862743,266.066978 275.060513,265.933273 C274.258282,265.799568 273.629877,265.625754 273.17528,265.411826 C272.720683,265.197897 272.707312,264.87701 273.135169,264.449154 C274.579184,263.05862 275.835993,261.828552 276.905634,260.758911 L280.034318,257.630227 C280.515657,256.988442 280.408694,256.667555 279.713428,256.667555 Z M287.093913,285.708161 C285.329006,287.526551 283.590865,289.385024 281.87944,291.283637 C280.168014,293.18225 278.670539,295.214537 277.38697,297.38056 C276.103401,299.546583 275.073887,301.886387 274.298397,304.400044 C273.522908,306.9137 273.18865,309.721465 273.295614,312.823424 C277.146321,308.651824 280.10116,304.319843 282.160219,299.827351 C284.219278,295.334859 285.863826,290.62851 287.093913,285.708161 Z M322.311666,261.561137 C320.06542,261.240245 318.019762,261.494281 316.174631,262.323253 C314.329501,263.152225 312.832026,264.288701 311.682162,265.732716 C310.532298,267.176732 309.823671,268.83465 309.556261,270.706522 C309.288851,272.578394 309.636479,274.423497 310.599156,276.241886 C311.187458,276.669743 311.762382,276.616261 312.323943,276.081441 C312.885505,275.54662 313.447058,274.757772 314.008619,273.714872 C314.570181,272.671972 315.118364,271.508755 315.653184,270.225186 C316.188005,268.941617 316.709447,267.751659 317.217526,266.655277 C317.725606,265.558895 318.220307,264.676454 318.701646,264.007929 C319.182984,263.339403 319.664315,263.112108 320.145654,263.326036 C320.520028,263.486482 320.854286,263.80737 321.148437,264.288708 C321.442588,264.770047 321.696624,265.318229 321.910552,265.933273 C322.124481,266.548317 322.325035,267.163351 322.512222,267.778394 C322.69941,268.393438 322.873224,268.941621 323.03367,269.422959 C323.56849,271.134385 324.156784,272.458045 324.798569,273.393981 C325.440353,274.329917 326.068758,274.985062 326.683801,275.359437 C327.298845,275.733811 327.873768,275.894255 328.408589,275.840773 C328.943409,275.787291 329.398,275.680328 329.772374,275.519882 C330.039784,275.359436 330.360672,275.11877 330.735046,274.797878 C331.10942,274.476986 331.483789,274.129358 331.858164,273.754983 C332.232538,273.380609 332.580166,273.059722 332.901058,272.792311 C333.221951,272.524901 333.489357,272.391198 333.703285,272.391198 C334.184623,272.391198 334.331697,272.792307 334.14451,273.594538 C333.957322,274.396769 333.596324,275.279209 333.061504,276.241886 C332.526683,277.204563 331.858168,278.087004 331.055937,278.889234 C330.253706,279.691465 329.478228,280.092574 328.729479,280.092574 C327.927249,280.092574 327.178511,279.958871 326.483245,279.691461 C325.787978,279.424051 325.106092,279.009571 324.437566,278.44801 C323.769041,277.886448 323.047044,277.177822 322.271554,276.322109 C321.496065,275.466396 320.626994,274.476993 319.664318,273.35387 C318.862087,274.156101 318.247053,275.011801 317.819196,275.920995 C317.39134,276.83019 316.722824,277.632409 315.813629,278.327676 C314.637024,279.504281 313.353474,280.34661 311.962941,280.85469 C310.572408,281.362769 309.155155,281.215696 307.71114,280.413465 C306.320606,279.664716 305.545128,278.608462 305.384682,277.24467 C305.224236,275.880877 305.224236,274.530476 305.384682,273.193425 C305.652092,270.73325 306.267127,268.406816 307.229804,266.214052 C308.192481,264.021288 309.582993,262.069223 311.401383,260.357797 C312.257095,259.609049 313.380201,258.80683 314.770735,257.951117 C316.161268,257.095404 317.444818,256.560592 318.621423,256.346664 C319.209725,256.293182 319.904982,256.440255 320.707212,256.787889 C321.509443,257.135522 322.177959,257.590112 322.712779,258.151674 C323.2476,258.713235 323.528376,259.314899 323.555117,259.956684 C323.581858,260.598469 323.167378,261.133281 322.311666,261.561137 Z M340.040876,283.622372 C339.773466,284.478085 339.492689,285.053008 339.198538,285.347159 C338.904387,285.641311 338.463166,285.841865 337.874864,285.948829 C336.805223,286.109275 336.109967,285.841869 335.789074,285.146603 C335.468182,284.451336 335.254257,283.702599 335.147293,282.900368 C335.040329,281.991173 335.214143,281.282546 335.66874,280.774467 C336.123338,280.266388 336.778483,280.119314 337.634196,280.333242 C338.27598,280.547171 338.904385,280.894799 339.519429,281.376137 C340.134472,281.857475 340.308286,282.606213 340.040876,283.622372 Z" id="Zaza."></path>
        </g>
    </g>
</svg>